<?xml version="1.0" encoding="iso-8859-1"?>
<!-- Generator: Adobe Illustrator 16.0.0, SVG Export Plug-In . SVG Version: 6.00 Build 0)  -->
<!DOCTYPE svg PUBLIC "-//W3C//DTD SVG 1.1//EN" "http://www.w3.org/Graphics/SVG/1.1/DTD/svg11.dtd">
<svg version="1.1" id="Capa_1" xmlns="http://www.w3.org/2000/svg" xmlns:xlink="http://www.w3.org/1999/xlink" x="0px" y="0px"
	 width="83.818px" height="83.818px" viewBox="0 0 83.818 83.818" style="enable-background:new 0 0 83.818 83.818;"
	 xml:space="preserve">
<g>
	<g>
		<path d="M64.034,30.886h-44.25c-0.551,0-1,0.449-1,1v25.5c0,0.551,0.449,1,1,1h44.25c0.551,0,1-0.449,1-1v-25.5
			C65.034,31.335,64.586,30.886,64.034,30.886z"/>
		<path d="M41.909,0C18.763,0,0.001,18.764,0.001,41.91c0,23.145,18.763,41.909,41.908,41.909S83.817,65.054,83.817,41.91
			C83.817,18.764,65.055,0,41.909,0z M71.034,60.886c0,1.653-1.346,3-3,3h-52.25c-1.654,0-3-1.347-3-3v-39.25c0-1.654,1.346-3,3-3
			h52.25c1.654,0,3,1.346,3,3V60.886z"/>
		<path d="M68.034,20.636h-52.25c-0.551,0-1,0.449-1,1v39.25c0,0.551,0.449,1,1,1h52.25c0.551,0,1-0.449,1-1v-39.25
			C69.034,21.085,68.586,20.636,68.034,20.636z M26.534,23.761h3.125c0.552,0,1,0.448,1,1s-0.448,1-1,1h-3.125c-0.552,0-1-0.448-1-1
			S25.982,23.761,26.534,23.761z M18.534,23.761h3.125c0.552,0,1,0.448,1,1s-0.448,1-1,1h-3.125c-0.552,0-1-0.448-1-1
			S17.982,23.761,18.534,23.761z M67.034,57.386c0,1.653-1.346,3-3,3h-44.25c-1.654,0-3-1.347-3-3v-25.5c0-1.654,1.346-3,3-3h44.25
			c1.654,0,3,1.346,3,3V57.386z M66.034,25.761h-18.5c-0.553,0-1-0.448-1-1s0.447-1,1-1h18.5c0.552,0,1,0.448,1,1
			S66.587,25.761,66.034,25.761z"/>
	</g>
</g>
<g>
</g>
<g>
</g>
<g>
</g>
<g>
</g>
<g>
</g>
<g>
</g>
<g>
</g>
<g>
</g>
<g>
</g>
<g>
</g>
<g>
</g>
<g>
</g>
<g>
</g>
<g>
</g>
<g>
</g>
</svg>
